<svg xmlns="http://www.w3.org/2000/svg" viewBox="0 0 378.06 53.59"><title>Vector Smart Object</title><path d="M60.75 53.58H50.42l-14.5-20.43h-27v20.43H0V0h42.25q8.44 0 13.25 4.55t4.81 12.32q0 6.81-3.92 11a17 17 0 0 1-10 4.88zM40.92 25.16q10.28 0 10.29-8.29Q51.21 8 40.11 8H8.88v17.16h32zm41.84 28.42h-8.83V0h8.84v53.58zM218.37 0l-28.86 53.58H179.3L150.44 0h9.92l24 44.64L208.46 0h9.92zm18.35 53.58h-8.88V0h8.88v53.58zM313.31 0l-28.86 53.58h-10.21L245.38 0h9.92l24 44.64L303.4 0h9.92zm64.75 53.58H322V0h54v8h-45.15v13.76h31.38v8h-31.38v15.83h47.21v8zM104.43 22.77h43.72v7.83h-43.72zM88.28 0h43.95v7.83H88.28zm0 45.76h43.95v7.83H88.28z" fill="#231f20"/></svg>