<?xml version="1.0" encoding="UTF-8" standalone="no"?>
<svg width="379px" height="54px" viewBox="0 0 379 54" version="1.1" xmlns="http://www.w3.org/2000/svg" xmlns:xlink="http://www.w3.org/1999/xlink">
    <!-- Generator: Sketch 39.1 (31720) - http://www.bohemiancoding.com/sketch -->
    <title>logo-revive</title>
    <desc>Created with Sketch.</desc>
    <defs></defs>
    <g id="Page-1" stroke="none" stroke-width="1" fill="none" fill-rule="evenodd">
        <g id="logo-revive" fill="#FFFFFF">
            <g id="Vector-Smart-Object">
                <path d="M60.75,53.58 L50.42,53.58 L35.92,33.15 L8.92,33.15 L8.92,53.58 L0,53.58 L0,0 L42.25,0 C47.8766667,0 52.2933333,1.51666667 55.5,4.55 C58.7066667,7.58333333 60.31,11.69 60.31,16.87 C60.31,21.41 59.0033333,25.0766667 56.39,27.87 C53.6984806,30.572398 50.1763856,32.2911804 46.39,32.75 L60.75,53.58 Z M40.92,25.16 C47.7733333,25.16 51.2033333,22.3966667 51.21,16.87 C51.21,10.9566667 47.51,8 40.11,8 L8.88,8 L8.88,25.16 L40.88,25.16 L40.92,25.16 Z M82.76,53.58 L73.93,53.58 L73.93,0 L82.77,0 L82.77,53.58 L82.76,53.58 Z M218.37,0 L189.51,53.58 L179.3,53.58 L150.44,0 L160.36,0 L184.36,44.64 L208.46,0 L218.38,0 L218.37,0 Z M236.72,53.58 L227.84,53.58 L227.84,0 L236.72,0 L236.72,53.58 L236.72,53.58 Z M313.31,0 L284.45,53.58 L274.24,53.58 L245.38,0 L255.3,0 L279.3,44.64 L303.4,0 L313.32,0 L313.31,0 Z M378.06,53.58 L322,53.58 L322,0 L376,0 L376,8 L330.85,8 L330.85,21.76 L362.23,21.76 L362.23,29.76 L330.85,29.76 L330.85,45.59 L378.06,45.59 L378.06,53.59 L378.06,53.58 Z M104.43,22.77 L148.15,22.77 L148.15,30.6 L104.43,30.6 L104.43,22.77 Z M88.28,0 L132.23,0 L132.23,7.83 L88.28,7.83 L88.28,0 Z M88.28,45.76 L132.23,45.76 L132.23,53.59 L88.28,53.59 L88.28,45.76 Z" id="Shape"></path>
            </g>
        </g>
    </g>
</svg>