<svg xmlns="http://www.w3.org/2000/svg" viewBox="0 0 197.61 228.9"><title>Vector Smart Object1</title><path d="M239 133.09a43.35 43.35 0 0 0-43.35-43.35h-.76v86.63h.76A43.35 43.35 0 0 0 239 133.09" transform="translate(-41.38 -28.17)" fill="#c5c2c0"/><path fill="#00b295" d="M68.1 125.34h24.3v42.7H68.1z"/><path d="M132.06 98.13a23.69 23.69 0 1 0-23.69-23.69 23.69 23.69 0 0 0 23.69 23.69" transform="translate(-41.38 -28.17)" fill="#ecc85c"/><path d="M160.48 159.68a32.6 32.6 0 1 1 32.6-32.6 32.6 32.6 0 0 1-32.6 32.6" transform="translate(-41.38 -28.17)" fill="#f6a9cb"/><path d="M104.42 58.9c-44.92-10.73-63 18.4-63 42.75a44.46 44.46 0 0 0 88.93.43H85.22z" transform="translate(-41.38 -28.17)" fill="#cfde00"/><path fill="#00aeef" d="M146.88 164.12v-27.39H96.55v76h27.39V187.4h7.87v-20.85h-7.87v-2.43h22.94z"/><path d="M239 133.09a43.35 43.35 0 0 0-43.35-43.35h-.76v86.63h.76A43.35 43.35 0 0 0 239 133.09" transform="translate(-41.38 -28.17)" fill="#c5c2c0"/><path fill="#00b295" d="M68.1 125.34h24.3v42.7H68.1z"/><path fill="#00aeef" d="M146.88 164.12v-27.39H96.55v76h27.39V187.4h7.87v-20.85h-7.87v-2.43h22.94z"/><path fill="#bbadcd" d="M87.98 173.19H60.01v-52.27H25.4v81.72h62.58v-29.45z"/><path fill="#ff9e16" d="M157.75 169.74h-21.22v58.9h.26v.26h38.74v-21.22h-17.78v-2.28h6.1v-12.56h-6.1v-1.88h17.78v-21.22h-17.78z"/><path d="M79.28 2.02v12.21h-2.15V2.02h-3.27v-2h8.68v2h-3.26zm7.34 3.55h6.13V0h2.15v14.23h-2.15V7.58h-6.13v6.65h-2.15V0h2.15v5.56zm19.52-3.55h-5.7v3.42h5.54v2h-5.54v4.75h5.7v2h-7.85V0h7.85v2z" fill="#58595b"/></svg>